<?xml version="1.0" encoding="UTF-8"?>
<svg version="1.1" xmlns="http://www.w3.org/2000/svg" width="1024" height="1024">
<path d="M0 0 C337.92 0 675.84 0 1024 0 C1024 337.92 1024 675.84 1024 1024 C686.08 1024 348.16 1024 0 1024 C0 686.08 0 348.16 0 0 Z " fill="#FDFDFD" transform="translate(0,0)"/>
<path d="M0 0 C0.96292969 0.86367188 1.92585937 1.72734375 2.91796875 2.6171875 C3.43149902 3.07319336 3.9450293 3.52919922 4.47412109 3.99902344 C16.10592013 14.47015794 24.25515474 27.01825657 29.91796875 41.6171875 C30.16063477 42.22884766 30.40330078 42.84050781 30.65332031 43.47070312 C39.47044494 66.58806545 36.67404565 94.23020227 26.91796875 116.6171875 C14.65119263 141.85867308 -6.78969678 159.62755764 -33.14453125 168.8046875 C-53.0798616 175.52606861 -75.39335952 174.61197783 -95.08203125 167.6171875 C-96.18289063 167.24464844 -97.28375 166.87210938 -98.41796875 166.48828125 C-110.81956259 161.81733974 -121.7551803 153.92862217 -131.08203125 144.6171875 C-131.91347656 143.79734375 -132.74492187 142.9775 -133.6015625 142.1328125 C-151.49161648 123.55573648 -159.71904427 99.7664408 -159.51953125 74.1796875 C-159.51648987 73.5002005 -159.51344849 72.8207135 -159.51031494 72.12063599 C-159.44372187 62.05635129 -158.85684224 53.0601316 -155.08203125 43.6171875 C-154.68113281 42.48539062 -154.28023438 41.35359375 -153.8671875 40.1875 C-144.81927063 16.6366903 -126.05611685 -2.88696055 -103.125 -13.21875 C-69.04647443 -27.76143319 -28.91917584 -24.01825471 0 0 Z " fill="#FDFDFD" transform="translate(574.08203125,435.3828125)"/>
<path d="M0 0 C0.76816544 -0.01533279 1.53633087 -0.03066559 2.32777405 -0.04646301 C4.86010427 -0.08806725 7.38997666 -0.08528926 9.92260742 -0.07836914 C11.68992516 -0.09003728 13.45723453 -0.1030428 15.22453308 -0.11732483 C18.92763536 -0.13969431 22.62987965 -0.13885383 26.33300781 -0.12304688 C31.06520072 -0.10568382 35.79386249 -0.15639276 40.52547169 -0.22608089 C44.17608463 -0.27041805 47.82585577 -0.2728919 51.47669029 -0.26355171 C53.22016062 -0.26508598 54.96368029 -0.28069973 56.7068882 -0.31098747 C70.29224275 -0.51802369 70.29224275 -0.51802369 75.00947571 2.77340698 C77.03996408 5.02851422 78.63260285 7.24230959 80.21557617 9.82397461 C81.18036054 11.04486754 82.15790527 12.2559812 83.15698242 13.44897461 C84.0342427 14.57119894 84.90796814 15.69619579 85.77807617 16.82397461 C86.71134119 18.03126005 87.64493524 19.23829121 88.57885742 20.44506836 C89.02438965 21.02111816 89.46992187 21.59716797 89.92895508 22.19067383 C91.09191279 23.66699017 92.29792076 25.10914357 93.50854492 26.54663086 C94.15436523 27.3187793 94.80018555 28.09092773 95.46557617 28.88647461 C96.02760742 29.53745117 96.58963867 30.18842773 97.16870117 30.85913086 C98.61618922 33.57587149 98.06040252 34.90821676 97.21557617 37.82397461 C95.88378906 39.70166016 95.88378906 39.70166016 94.18823242 41.46069336 C93.25430664 42.44295898 93.25430664 42.44295898 92.30151367 43.44506836 C91.6337793 44.12698242 90.96604492 44.80889648 90.27807617 45.51147461 C89.59874023 46.22045898 88.9194043 46.92944336 88.21948242 47.65991211 C83.66074904 52.39995875 79.01745221 57.05233668 74.33666992 61.67163086 C71.80976613 64.23576344 69.48394164 66.93373309 67.14916992 69.67163086 C64.18977289 72.96582837 61.02839696 76.05341189 57.85839844 79.14404297 C55.19569857 81.72297687 55.19569857 81.72297687 53.21557617 84.82397461 C54.39120117 84.90647461 55.56682617 84.98897461 56.77807617 85.07397461 C76.18845015 87.36820233 93.82043216 96.06115538 109.21557617 107.82397461 C110.08311523 108.46979492 110.9506543 109.11561523 111.84448242 109.78100586 C133.97417138 126.78519566 149.28642452 150.84138831 156.21557617 177.82397461 C156.51979492 178.93643555 156.82401367 180.04889648 157.13745117 181.19506836 C162.07109688 199.83587124 161.81466059 220.12887752 157.21557617 238.82397461 C157.04928711 239.52039063 156.88299805 240.21680664 156.71166992 240.93432617 C148.82767874 273.03969025 127.33727694 301.63692899 99.3347168 318.98950195 C71.41389475 335.50221152 35.59047626 342.59633212 3.77807617 334.69897461 C0.55704428 333.83234737 -2.61557238 332.86423679 -5.78442383 331.82397461 C-6.5061377 331.59403809 -7.22785156 331.36410156 -7.97143555 331.12719727 C-41.64100024 320.17780833 -66.9481492 296.84242179 -83.06396484 265.66967773 C-97.77846963 236.08490228 -100.02714448 201.00853743 -89.89404297 169.6550293 C-78.29656145 135.8357116 -53.78925744 109.66653615 -21.95141602 93.91723633 C-12.17309931 89.23325524 -0.77376293 84.62525238 10.21557617 84.82397461 C4.14358616 76.75854726 -2.65529057 69.73928645 -9.84692383 62.69897461 C-11.94545954 60.63737929 -14.0406358 58.57245132 -16.13208008 56.50366211 C-16.87888535 55.76510483 -16.87888535 55.76510483 -17.64077759 55.0116272 C-21.04488981 51.62106552 -24.27618864 48.12792407 -27.37988281 44.46166992 C-28.33210914 43.35137369 -29.32209292 42.27257959 -30.34326172 41.2253418 C-32.6375147 38.79544689 -33.79089376 37.47651373 -33.75708008 34.06616211 C-32.47035821 29.77708921 -30.21563547 27.32452307 -27.22192383 24.07397461 C-26.12426479 22.84075982 -25.0279152 21.60637829 -23.93286133 20.37084961 C-23.395 19.76950195 -22.85713867 19.1681543 -22.30297852 18.54858398 C-19.61549506 15.49643236 -17.11498236 12.2999416 -14.60083008 9.10522461 C-13.70170898 7.97600586 -13.70170898 7.97600586 -12.78442383 6.82397461 C-12.08251419 5.8039183 -11.38060455 4.783862 -10.65742493 3.7328949 C-7.63625157 0.14276978 -4.50465423 -0.0466607 0 0 Z M-43.20629883 147.01196289 C-51.11826105 156.096521 -56.70792339 166.52442496 -60.78442383 177.82397461 C-61.19692383 178.85393555 -61.60942383 179.88389648 -62.03442383 180.94506836 C-67.92909714 198.32207407 -67.1579488 222.71510226 -60.78442383 239.82397461 C-60.53772949 240.51587891 -60.29103516 241.2077832 -60.03686523 241.9206543 C-54.33128261 257.7589874 -45.56327234 269.93531969 -33.78442383 281.82397461 C-33.11797852 282.50331055 -32.4515332 283.18264648 -31.76489258 283.88256836 C-22.34451429 292.76933045 -10.00150556 298.91910242 2.21557617 302.82397461 C3.34350586 303.21584961 4.47143555 303.60772461 5.63354492 304.01147461 C23.31507644 309.37741884 43.79462364 308.90842561 61.21557617 302.82397461 C62.93067383 302.24583008 62.93067383 302.24583008 64.68041992 301.65600586 C89.53038093 292.6961016 109.72479678 274.75431334 121.21557617 250.82397461 C122.60250754 247.439637 123.86715073 244.02049204 125.09057617 240.57397461 C125.53844482 239.31423828 125.53844482 239.31423828 125.99536133 238.02905273 C133.86991953 214.79566234 130.63081169 187.57504009 119.98144531 165.8371582 C116.18965849 158.52297751 111.81584959 151.89348769 106.21557617 145.82397461 C104.98387695 144.47239258 104.98387695 144.47239258 103.72729492 143.09350586 C86.23060284 124.73590563 63.16030545 113.62302961 37.77807617 112.52319336 C5.51679389 111.76661835 -21.3047001 123.2787126 -43.20629883 147.01196289 Z " fill="#0B0B0B" transform="translate(479.784423828125,301.176025390625)"/>
<path d="M0 0 C0.7175647 0.00270905 1.43512939 0.00541809 2.17443848 0.00820923 C18.74006439 0.10275559 33.55480468 2.60864744 48.75 9.4375 C49.74128906 9.87835938 50.73257813 10.31921875 51.75390625 10.7734375 C64.77895131 16.92085121 75.56350019 25.4053411 85.75 35.4375 C86.60335937 36.26636719 87.45671875 37.09523438 88.3359375 37.94921875 C109.36626869 59.60979646 119.21645679 89.22238524 119.04321289 118.93261719 C118.55990762 150.31739769 106.18234098 177.71313847 84.75 200.4375 C83.81414062 201.47003906 83.81414062 201.47003906 82.859375 202.5234375 C77.20772957 208.53127907 70.61099233 212.9527538 63.75 217.4375 C62.56664062 218.25734375 62.56664062 218.25734375 61.359375 219.09375 C37.06033806 235.06654351 4.20901044 238.9576281 -23.76245117 233.27685547 C-31.91788432 231.44908671 -39.61906972 228.82924876 -47.25 225.4375 C-47.86456055 225.16534668 -48.47912109 224.89319336 -49.11230469 224.61279297 C-63.86405886 217.9460599 -76.15095112 208.15316271 -87.25 196.4375 C-87.683125 195.98761719 -88.11625 195.53773438 -88.5625 195.07421875 C-101.11853274 181.32399812 -109.70802158 163.32314384 -114.25 145.4375 C-114.52972656 144.38433594 -114.80945313 143.33117187 -115.09765625 142.24609375 C-121.58103977 113.80967208 -117.24750177 82.74840912 -101.95703125 57.78857422 C-84.4974412 30.50424046 -59.54716719 10.57552416 -27.86254883 2.58300781 C-18.49700415 0.58050009 -9.56435886 -0.08523219 0 0 Z M-74.671875 54.62548828 C-82.58383723 63.71004639 -88.17349956 74.13795035 -92.25 85.4375 C-92.6625 86.46746094 -93.075 87.49742187 -93.5 88.55859375 C-99.39467332 105.93559947 -98.62352497 130.32862765 -92.25 147.4375 C-92.00330566 148.1294043 -91.75661133 148.82130859 -91.50244141 149.53417969 C-85.79685878 165.37251279 -77.02884851 177.54884508 -65.25 189.4375 C-64.58355469 190.11683594 -63.91710937 190.79617188 -63.23046875 191.49609375 C-53.81009046 200.38285584 -41.46708173 206.53262781 -29.25 210.4375 C-28.12207031 210.829375 -26.99414062 211.22125 -25.83203125 211.625 C-8.15049973 216.99094423 12.32904747 216.521951 29.75 210.4375 C31.46509766 209.85935547 31.46509766 209.85935547 33.21484375 209.26953125 C58.06480475 200.30962699 78.25922061 182.36783873 89.75 158.4375 C91.13693137 155.05316239 92.40157456 151.63401743 93.625 148.1875 C94.07286865 146.92776367 94.07286865 146.92776367 94.52978516 145.64257812 C102.40434336 122.40918773 99.16523552 95.18856548 88.51586914 73.45068359 C84.72408232 66.1365029 80.35027342 59.50701308 74.75 53.4375 C73.51830078 52.08591797 73.51830078 52.08591797 72.26171875 50.70703125 C54.76502667 32.34943102 31.69472927 21.236555 6.3125 20.13671875 C-25.94878228 19.38014374 -52.77027627 30.89223799 -74.671875 54.62548828 Z " fill="#F4F4F3" transform="translate(511.25,393.5625)"/>
<path d="M0 0 C2.0276983 -0.0095929 4.05433083 -0.04061367 6.08178711 -0.07226562 C15.47071567 -0.14727533 23.98126378 1.10351892 33.12670898 3.24023438 C34.10043457 3.44245605 35.07416016 3.64467773 36.07739258 3.85302734 C49.76389521 6.74469728 62.52951524 15.45007656 73.12670898 24.24023438 C74.43381836 25.31917969 74.43381836 25.31917969 75.76733398 26.41992188 C90.78420899 39.36391536 101.52451378 56.26093426 107.12670898 75.24023438 C107.51729492 76.39910156 107.90788086 77.55796875 108.31030273 78.75195312 C113.67708056 96.52360149 112.43474315 116.34377471 108.12670898 134.24023438 C107.93334961 135.12839844 107.73999023 136.0165625 107.54077148 136.93164062 C101.54912803 160.54805346 83.42013172 183.31189972 63.00512695 196.12304688 C57.78505747 199.22767879 52.3700045 201.91298726 46.8527832 204.44433594 C45.43360866 205.09872193 44.02971828 205.78615463 42.63061523 206.48242188 C18.73053816 217.47390117 -10.21839102 215.04757437 -34.31079102 206.61523438 C-59.14881411 197.02862897 -81.47232649 177.75242303 -92.71704102 153.33398438 C-96.87976071 143.86688928 -99.70760334 134.34677684 -101.87329102 124.24023438 C-102.04908691 123.45656494 -102.22488281 122.67289551 -102.40600586 121.86547852 C-104.91067925 107.79402973 -103.42575307 92.00216348 -99.87329102 78.24023438 C-99.49043945 76.62568359 -99.49043945 76.62568359 -99.09985352 74.97851562 C-91.87679312 48.04113901 -72.4421785 26.71477383 -48.86938477 12.86132812 C-33.3265763 4.03461482 -17.89014065 0.05091467 0 0 Z M-71.29516602 43.42822266 C-79.20712824 52.51278077 -84.79679058 62.94068473 -88.87329102 74.24023438 C-89.28579102 75.27019531 -89.69829102 76.30015625 -90.12329102 77.36132812 C-96.01796433 94.73833384 -95.24681599 119.13136203 -88.87329102 136.24023438 C-88.62659668 136.93213867 -88.37990234 137.62404297 -88.12573242 138.33691406 C-82.4201498 154.17524717 -73.65213953 166.35157946 -61.87329102 178.24023438 C-61.2068457 178.91957031 -60.54040039 179.59890625 -59.85375977 180.29882812 C-50.43338148 189.18559021 -38.09037274 195.33536219 -25.87329102 199.24023438 C-24.74536133 199.63210938 -23.61743164 200.02398438 -22.45532227 200.42773438 C-4.77379075 205.79367861 15.70575645 205.32468537 33.12670898 199.24023438 C34.84180664 198.66208984 34.84180664 198.66208984 36.59155273 198.07226562 C61.44151374 189.11236137 81.63592959 171.17057311 93.12670898 147.24023438 C94.51364036 143.85589677 95.77828354 140.4367518 97.00170898 136.99023438 C97.44957764 135.73049805 97.44957764 135.73049805 97.90649414 134.4453125 C105.78105235 111.21192211 102.5419445 83.99129986 91.89257812 62.25341797 C88.10079131 54.93923728 83.7269824 48.30974746 78.12670898 42.24023438 C76.89500977 40.88865234 76.89500977 40.88865234 75.63842773 39.50976562 C58.14173565 21.1521654 35.07143826 10.03928938 9.68920898 8.93945312 C-22.5720733 8.18287812 -49.39356729 19.69497237 -71.29516602 43.42822266 Z " fill="#0B0B0B" transform="translate(507.873291015625,404.759765625)"/>
<path d="M0 0 C2 2 2 2 2.125 4.625 C2.08375 5.40875 2.0425 6.1925 2 7 C-2.7699803 9.14730311 -7.55625987 11.2444584 -12.3828125 13.26171875 C-31.67795731 21.37458271 -49.66788387 30.28877609 -63 47 C-63.825 48.010625 -64.65 49.02125 -65.5 50.0625 C-68.48590284 55.83255549 -68.02746245 63.71843235 -67 70 C-65.5654999 74.15650205 -63.58992818 77.46352856 -61 81 C-60.29230469 82.03833984 -60.29230469 82.03833984 -59.5703125 83.09765625 C-50.82501984 94.49372415 -35.73047532 101.12096814 -23 107 C-22.32525635 107.31694824 -21.6505127 107.63389648 -20.95532227 107.96044922 C8.01560551 121.26018867 39.77377319 126.08170423 71 131 C70.99419922 130.36658691 70.98839844 129.73317383 70.98242188 129.08056641 C70.95476434 123.81279421 71.08813493 118.62627961 71.5 113.375 C71.5928125 112.16585937 71.685625 110.95671875 71.78125 109.7109375 C71.8534375 108.81632813 71.925625 107.92171875 72 107 C83.01403094 112.18609382 92.96509539 120.4444736 102.86181641 127.48632812 C104.96651834 128.97629752 107.08116616 130.45096356 109.19921875 131.921875 C110.48698989 132.82290134 111.77475082 133.72394227 113.0625 134.625 C113.66433105 135.03862793 114.26616211 135.45225586 114.88623047 135.87841797 C116.29384428 136.86920803 117.65294156 137.92833068 119 139 C119 139.66 119 140.32 119 141 C114.575684 143.15198297 110.15059519 145.30236659 105.72485352 147.45141602 C104.22660516 148.17919148 102.72855086 148.90736662 101.23071289 149.63598633 C96.15953398 152.10263226 91.08208634 154.55591249 86 157 C85.2801593 157.3476239 84.5603186 157.6952478 83.81866455 158.05340576 C81.74795411 159.05105453 79.6734987 160.04042612 77.59765625 161.02734375 C76.97475204 161.32862686 76.35184784 161.62990997 75.71006775 161.94032288 C72.92865618 163.25248712 71.11996716 164 68 164 C67.87132711 155.93649887 68.20318916 148.02502344 69 140 C67.29457031 140.03867187 67.29457031 140.03867187 65.5546875 140.078125 C60.98680173 140.0741128 56.62426873 139.49673727 52.125 138.75 C51.30273926 138.61650146 50.48047852 138.48300293 49.63330078 138.34545898 C41.73125507 137.0234179 33.93474174 135.32513932 26.13818359 133.48974609 C24.13670236 133.03131137 22.12514878 132.61749266 20.11328125 132.20703125 C-5.25638945 126.94451292 -32.07714415 117.56040539 -53 102 C-53.88042969 101.35289062 -54.76085937 100.70578125 -55.66796875 100.0390625 C-66.57794674 91.68740007 -74.16798778 82.33674122 -78 69 C-79.42671079 56.5951251 -76.50905446 47.19048788 -68.9375 37.375 C-55.30827702 21.74742307 -21.98552494 -2.80666276 0 0 Z " fill="#0A0909" transform="translate(364,555)"/>
<path d="M0 0 C4.92090264 0.51019392 9.03032339 2.26237033 13.56640625 4.17578125 C14.52869141 4.57812988 15.49097656 4.98047852 16.48242188 5.39501953 C38.54828232 14.80503667 62.95718192 26.34836459 73.50390625 49.36328125 C76.78542609 57.64521226 76.9859354 69.03483601 73.50390625 77.36328125 C71.08660687 81.24182452 68.3790396 84.81469324 65.50390625 88.36328125 C64.71242188 89.36359375 63.9209375 90.36390625 63.10546875 91.39453125 C50.17011577 106.15559471 30.40834104 114.45141969 12.50390625 121.36328125 C11.71000488 121.67007813 10.91610352 121.976875 10.09814453 122.29296875 C-9.23956444 129.64923601 -29.34418825 134.25665567 -49.68359375 137.86328125 C-50.40047363 137.9907373 -51.11735352 138.11819336 -51.85595703 138.24951172 C-58.05635501 139.32991506 -64.27281143 140.17114615 -70.51953125 140.93359375 C-73.54221851 141.2800787 -73.54221851 141.2800787 -76.49609375 142.36328125 C-80.98580511 142.92082024 -85.49209331 143.31234457 -89.99755859 143.72045898 C-92.19707562 143.92130522 -94.39534216 144.13310602 -96.59375 144.34570312 C-103.68351217 145.01048077 -110.76502941 145.52197378 -117.88671875 145.640625 C-119.08844727 145.6624585 -120.29017578 145.68429199 -121.52832031 145.70678711 C-124.49609375 145.36328125 -124.49609375 145.36328125 -126.42089844 144.00610352 C-127.49609375 142.36328125 -127.49609375 142.36328125 -127.30859375 139.80078125 C-126.49609375 137.36328125 -126.49609375 137.36328125 -124.49609375 135.36328125 C-122.13061523 135.01611328 -122.13061523 135.01611328 -119.1171875 134.87109375 C-117.98563232 134.80825195 -116.85407715 134.74541016 -115.68823242 134.68066406 C-114.44920166 134.61717773 -113.2101709 134.55369141 -111.93359375 134.48828125 C-69.93511268 131.92020791 -24.13584363 126.7890508 14.50390625 109.36328125 C15.56609375 108.9146875 16.62828125 108.46609375 17.72265625 108.00390625 C36.17526331 100.10119209 54.00169112 90.87451695 63.50390625 72.36328125 C65.83141502 65.38075495 65.66845991 56.84525044 62.62890625 50.11328125 C50.52636031 29.53895315 23.79935861 18.63216161 2.30102539 11.16308594 C-0.52584323 10.1744133 -2.34637352 9.51300148 -4.49609375 7.36328125 C-4.74609375 4.86328125 -4.74609375 4.86328125 -4.49609375 2.36328125 C-2.49609375 0.36328125 -2.49609375 0.36328125 0 0 Z " fill="#0E0E0E" transform="translate(662.49609375,554.63671875)"/>
<path d="M0 0 C13.2 0 26.4 0 40 0 C37.75028345 6.74914966 37.75028345 6.74914966 36.32006836 9.6628418 C35.84463844 10.63866463 35.84463844 10.63866463 35.35960388 11.63420105 C35.02308304 12.31565689 34.68656219 12.99711273 34.33984375 13.69921875 C33.9899086 14.41608353 33.63997345 15.1329483 33.2794342 15.87153625 C32.16897263 18.14526477 31.05358551 20.41652747 29.9375 22.6875 C28.81850603 24.96949737 27.70060717 27.25201495 26.58485413 29.53559875 C25.89242553 30.95227739 25.19803129 32.36799738 24.50144958 33.78263855 C23.17179785 36.49910175 21.95777612 39.12667163 21 42 C20.34 42 19.68 42 19 42 C18.6376123 41.20940186 18.27522461 40.41880371 17.90185547 39.60424805 C16.52946991 36.61517222 15.15356078 33.62776808 13.77539062 30.64135742 C13.18449734 29.35911259 12.5949341 28.07625382 12.00683594 26.79272461 C8.63021799 19.42582009 5.13998789 12.20224222 1.07080078 5.18286133 C0 3 0 3 0 0 Z " fill="#F9F9F8" transform="translate(492,341)"/>
<path d="M0 0 C5.94 0 11.88 0 18 0 C16.0409038 3.91819241 14.32471613 5.89540711 11.23828125 8.921875 C10.76939987 9.38555481 10.30051849 9.84923462 9.81742859 10.32696533 C8.32048402 11.80617025 6.81704251 13.27852701 5.3125 14.75 C-5.28866817 24.8970349 -5.28866817 24.8970349 -14.5612793 36.22167969 C-15.03605713 36.80852539 -15.51083496 37.39537109 -16 38 C-16.66 38 -17.32 38 -18 38 C-16.70533043 33.89920057 -15.1823494 30.06620412 -13.3203125 26.19140625 C-12.80339844 25.11439453 -12.28648437 24.03738281 -11.75390625 22.92773438 C-11.21636719 21.81720703 -10.67882812 20.70667969 -10.125 19.5625 C-9.59519531 18.45583984 -9.06539062 17.34917969 -8.51953125 16.20898438 C-5.84660409 10.66083656 -3.06420875 5.36236531 0 0 Z " fill="#F3F2F1" transform="translate(543,341)"/>
<path d="M0 0 C5.94 0 11.88 0 18 0 C27.66796875 19.3359375 27.66796875 19.3359375 29.36474609 22.74511719 C30.4186285 24.84281207 31.4881489 26.93275897 32.57666016 29.01269531 C33.2754126 30.35605957 33.2754126 30.35605957 33.98828125 31.7265625 C34.40247314 32.50854004 34.81666504 33.29051758 35.2434082 34.09619141 C35.4930835 34.72444824 35.74275879 35.35270508 36 36 C35.505 36.99 35.505 36.99 35 38 C32.14153993 35.17097124 29.28905016 32.33599221 26.4375 29.5 C25.63763672 28.70851563 24.83777344 27.91703125 24.01367188 27.1015625 C19.68991849 22.79545709 15.54555017 18.41504725 11.57006836 13.78613281 C8.55762047 10.35912788 5.2268631 7.26461038 1.94140625 4.1015625 C0 2 0 2 0 0 Z " fill="#F2F1F0" transform="translate(463,341)"/>
<path d="M0 0 C3.34321955 1.11440652 4.06019619 1.97472343 6.25 4.625 C9.24035139 8.16368874 12.38192698 11.43662845 15.71484375 14.65234375 C17 16 17 16 17 17 C6.11 17 -4.78 17 -16 17 C-12.25711426 12.63329996 -8.68596348 8.56858559 -4.625 4.5625 C-3.75101562 3.69753906 -2.87703125 2.83257812 -1.9765625 1.94140625 C-1.32429688 1.30074219 -0.67203125 0.66007812 0 0 Z " fill="#F1F0ED" transform="translate(511,314)"/>
<path d="M0 0 C6.27 0 12.54 0 19 0 C15.56391858 4.00876166 12.13808738 8.00041931 8.625 11.9375 C7.93664062 12.70964844 7.24828125 13.48179687 6.5390625 14.27734375 C6.03117187 14.84582031 5.52328125 15.41429687 5 16 C2.70311431 13.70311431 2.28148697 12.21071829 1.375 9.125 C1.11460937 8.26132812 0.85421875 7.39765625 0.5859375 6.5078125 C0 4 0 4 0 0 Z " fill="#E8E5E2" transform="translate(482,311)"/>
<path d="M0 0 C6.27 0 12.54 0 19 0 C17.78890831 5.44991262 16.5849657 10.67904372 15 16 C14.28457031 15.28328125 13.56914063 14.5665625 12.83203125 13.828125 C11.00274189 11.99819039 9.16594499 10.17690338 7.32421875 8.359375 C6.45410156 7.49828125 5.58398438 6.6371875 4.6875 5.75 C3.80449219 4.87859375 2.92148437 4.0071875 2.01171875 3.109375 C0 1 0 1 0 0 Z " fill="#F8F7F5" transform="translate(523,311)"/>
<path d="M0 0 C4.36428792 3.58189457 4.69678384 8.72507746 6 14 C0.72 14 -4.56 14 -10 14 C-8.2062572 10.4125144 -6.3896203 7.83243778 -3.875 4.75 C-3.15054687 3.85796875 -2.42609375 2.9659375 -1.6796875 2.046875 C-0.84824219 1.03367187 -0.84824219 1.03367187 0 0 Z " fill="#EFEDEC" transform="translate(472,317)"/>
<path d="M0 0 C0.66 0 1.32 0 2 0 C2.94806826 1.3882428 3.88814838 2.7828048 4.78125 4.20703125 C6.56880068 6.83679331 8.69098747 9.13563969 10.828125 11.484375 C12 13 12 13 12 15 C7.05 15 2.1 15 -3 15 C-2 10 -1 5 0 0 Z " fill="#EAE9E8" transform="translate(550,316)"/>
<path d="M0 0 C2.12142437 3.96689109 2.75914983 6.44510102 2 11 C0.10774324 13.33055231 -1.91952072 15.29635987 -4.15234375 17.30078125 C-6.08721117 18.87807309 -6.08721117 18.87807309 -7 21 C-7.66 21 -8.32 21 -9 21 C-7.50640515 16.15713185 -5.54966433 11.68649104 -3.375 7.125 C-2.88773438 6.09246094 -2.88773438 6.09246094 -2.390625 5.0390625 C-1.59676528 3.35794781 -0.79880442 1.67877079 0 0 Z " fill="#E7E6E4" transform="translate(534,358)"/>
<path d="M0 0 C6.27 0 12.54 0 19 0 C17.78890831 5.44991262 16.5849657 10.67904372 15 16 C13 14.625 13 14.625 11 13 C11 12.34 11 11.68 11 11 C11.99 11 12.98 11 14 11 C14.66 7.7 15.32 4.4 16 1 C10.72 1 5.44 1 0 1 C0 0.67 0 0.34 0 0 Z " fill="#BEBBBA" transform="translate(523,311)"/>
<path d="M0 0 C0.5534764 2.07553648 1 3.84365964 1 6 C-1.87771795 7.91847864 -4.88626628 9.50079488 -8 11 C-8 11.66 -8 12.32 -8 13 C-9.62626404 14.38232443 -11.2925002 15.71937515 -13 17 C-13.66 16.67 -14.32 16.34 -15 16 C-14.41992188 15.43152344 -13.83984375 14.86304688 -13.2421875 14.27734375 C-8.59383097 9.68268111 -4.17366549 5.029802 0 0 Z " fill="#E0E1E1" transform="translate(556,360)"/>
<path d="M0 0 C0.68707555 2.49064888 1 4.37886292 1 7 C1.99 7.33 2.98 7.66 4 8 C1.03 7.67 -1.94 7.34 -5 7 C-3.38262276 3.76524552 -2.52370777 2.29427979 0 0 Z " fill="#DADAD8" transform="translate(538,379)"/>
<path d="M0 0 C0.66 0.66 1.32 1.32 2 2 C-0.64 3.98 -3.28 5.96 -6 8 C-6.33 6.68 -6.66 5.36 -7 4 C-3.25 1 -3.25 1 -1 1 C-0.67 0.67 -0.34 0.34 0 0 Z " fill="#EEEDEC" transform="translate(444,425)"/>
<path d="M0 0 C0.66 0.33 1.32 0.66 2 1 C-0.475 4.465 -0.475 4.465 -3 8 C-3.99 7.34 -4.98 6.68 -6 6 C-5.01 4.35 -4.02 2.7 -3 1 C-2.01 1.33 -1.02 1.66 0 2 C0 1.34 0 0.68 0 0 Z " fill="#E8E8E8" transform="translate(608,576)"/>
<path d="M0 0 C2.15377564 2.62198774 3.40072174 4.64404172 4 8 C3.34 8 2.68 8 2 8 C1.67 8.66 1.34 9.32 1 10 C-1.42857143 3.71428571 -1.42857143 3.71428571 0 0 Z " fill="#D8D8D7" transform="translate(396,565)"/>
<path d="M0 0 C3.625 0.375 3.625 0.375 7 1 C4.31158141 3.25245881 2.35358125 4.88213958 -1 6 C-1.625 4.125 -1.625 4.125 -2 2 C-1.34 1.34 -0.68 0.68 0 0 Z " fill="#ECEAE9" transform="translate(450,418)"/>
<path d="M0 0 C0.66 0.66 1.32 1.32 2 2 C1.66555164 5.34448359 0.21127671 7.52337009 -2 10 C-2.66 10 -3.32 10 -4 10 C-2.8905928 6.51329166 -1.73662334 3.22515763 0 0 Z " fill="#CECCCA" transform="translate(529,369)"/>
<path d="M0 0 C1.32 0.33 2.64 0.66 4 1 C1.525 4.465 1.525 4.465 -1 8 C-2 4 -2 4 -1.0625 1.75 C-0.711875 1.1725 -0.36125 0.595 0 0 Z " fill="#E3E4E6" transform="translate(590,563)"/>
<path d="M0 0 C0.33 0.99 0.66 1.98 1 3 C0.34 3 -0.32 3 -1 3 C-1.433125 3.928125 -1.433125 3.928125 -1.875 4.875 C-3 7 -3 7 -5 9 C-5.99 8.67 -6.98 8.34 -8 8 C-5.36 5.36 -2.72 2.72 0 0 Z " fill="#131513" transform="translate(557,346)"/>
<path d="M0 0 C0.66 0.33 1.32 0.66 2 1 C1.01 2.32 0.02 3.64 -1 5 C-3.97 4.505 -3.97 4.505 -7 4 C-4.61426621 2.10786631 -2.92824652 0.97608217 0 0 Z " fill="#D5D5D6" transform="translate(450,711)"/>
<path d="M0 0 C0.66 0.33 1.32 0.66 2 1 C1.875 2.875 1.875 2.875 1 5 C-2.0625 6.25 -2.0625 6.25 -5 7 C-1.125 1.125 -1.125 1.125 0 0 Z " fill="#D7D4D8" transform="translate(472,317)"/>
<path d="M0 0 C0.99 0 1.98 0 3 0 C5.1875 2.5 5.1875 2.5 7 5 C6.34 5.66 5.68 6.32 5 7 C3.29115995 5.37660195 1.62553283 3.70680947 0 2 C0 1.34 0 0.68 0 0 Z " fill="#282727" transform="translate(514,315)"/>
<path d="M0 0 C2.475 0.99 2.475 0.99 5 2 C4.67 3.32 4.34 4.64 4 6 C2.35 4.35 0.7 2.7 -1 1 C-0.67 0.67 -0.34 0.34 0 0 Z " fill="#1D1D1D" transform="translate(301,646)"/>
<path d="M0 0 C1.32 1.65 2.64 3.3 4 5 C3.67 5.66 3.34 6.32 3 7 C2.01 7 1.02 7 0 7 C-0.38133299 5.0085944 -0.71325582 3.00720923 -1 1 C-0.67 0.67 -0.34 0.34 0 0 Z " fill="#E7E5E5" transform="translate(613,451)"/>
<path d="M0 0 C0 3 0 3 -1.375 4.5 C-1.91125 4.995 -2.4475 5.49 -3 6 C-3.66 6.99 -4.32 7.98 -5 9 C-5.33 7.68 -5.66 6.36 -6 5 C-4.02 3.35 -2.04 1.7 0 0 Z " fill="#E2E4E3" transform="translate(453,433)"/>
<path d="M0 0 C4.42857143 5.14285714 4.42857143 5.14285714 5 9 C3.02 7.35 1.04 5.7 -1 4 C-0.67 2.68 -0.34 1.36 0 0 Z " fill="#C3C1C1" transform="translate(494,370)"/>
<path d="M0 0 C0.66 0 1.32 0 2 0 C2.33 0.66 2.66 1.32 3 2 C3.99 2 4.98 2 6 2 C5.34 3.32 4.68 4.64 4 6 C2.35 4.35 0.7 2.7 -1 1 C-0.67 0.67 -0.34 0.34 0 0 Z " fill="#1A1A1B" transform="translate(709,585)"/>
<path d="M0 0 C0.66 0.66 1.32 1.32 2 2 C-1.465 4.97 -1.465 4.97 -5 8 C-4 4 -4 4 -1.9375 2.75 C-1.298125 2.5025 -0.65875 2.255 0 2 C0 1.34 0 0.68 0 0 Z " fill="#E4E3E4" transform="translate(436,432)"/>
<path d="M0 0 C0.99 0.33 1.98 0.66 3 1 C-0.465 3.97 -0.465 3.97 -4 7 C-3.67 5.68 -3.34 4.36 -3 3 C-2.34 3 -1.68 3 -1 3 C-0.67 2.01 -0.34 1.02 0 0 Z " fill="#2A2C2F" transform="translate(586,585)"/>
</svg>
