<!--<svg xmlns="http://www.w3.org/2000/svg" width="256" height="256" viewBox="0 0 256 256" fill="none">-->
<!--    <mask id="mask0_1885_1521" style="mask-type:luminance" maskUnits="userSpaceOnUse" x="34" y="10" width="188" height="235">-->
<!--        <path d="M221.254 10.0806H34.7466V245H221.254V10.0806Z" fill="white"/>-->
<!--    </mask>-->
<!--    <g mask="url(#mask0_1885_1521)">-->
<!--        <path d="M183.459 245H72.7254C71.9018 245 71.1696 244.634 70.529 244.085L35.6618 209.858C35.1127 209.309 34.7466 208.485 34.7466 207.662V46.4121C34.7466 45.5884 35.1127 44.7648 35.6618 44.2157L69.9799 10.9957C70.529 10.3551 71.3527 10.0806 72.1763 10.0806H183.459C184.283 10.0806 185.015 10.3551 185.564 10.9042L220.248 43.5751C220.889 44.1242 221.255 44.9478 221.255 45.863V206.014C221.255 206.838 220.98 207.57 220.34 208.211L185.655 244.085C185.106 244.725 184.283 245 183.459 245ZM73.9151 238.868H182.086L215.032 204.825V47.2357L182.178 16.3036H73.366L40.9696 47.7848V206.38L74.0066 238.868H73.9151Z" fill="#4B4B4B"/>-->
<!--        <path d="M163.051 211.504H93.1334C92.2182 211.504 91.3946 211.138 90.8455 210.498L68.8819 186.246C68.3328 185.697 68.0582 184.965 68.0582 184.141V70.1138C68.0582 69.3817 68.3328 68.558 68.8819 68.009L90.4794 44.4896C91.0285 43.849 91.8522 43.4829 92.7673 43.4829H163.051C163.875 43.4829 164.698 43.849 165.339 44.4896L187.211 67.6429C187.76 68.192 188.035 69.0156 188.035 69.7477V182.952C188.035 183.684 187.76 184.416 187.303 184.965L165.431 210.315C164.881 210.955 163.966 211.413 163.051 211.413V211.504ZM94.5061 205.281H161.587L181.812 181.854V71.029L161.678 49.7975H94.14L74.2813 71.395V183.043L94.5061 205.373V205.281Z" fill="#4B4B4B"/>-->
<!--        <path d="M92.7672 49.7084C91.7605 49.7084 90.7539 49.1594 90.1133 48.2442L69.5224 14.8412C68.6072 13.377 69.0648 11.4551 70.529 10.54C71.9933 9.62485 73.9151 10.0824 74.8302 11.5467L95.5126 44.9497C96.4278 46.4139 95.9702 48.3357 94.506 49.2509C93.9569 49.5254 93.4078 49.7084 92.8587 49.7084H92.7672Z" fill="#4B4B4B"/>-->
<!--        <path d="M71.1692 73.2291C70.5286 73.2291 69.888 73.0461 69.3389 72.68L36.0274 48.9776C34.6547 47.9709 34.2886 46.0491 35.2953 44.6764C36.3019 43.3037 38.2238 42.9376 39.5965 43.9443L72.908 67.6467C74.2807 68.6534 74.6468 70.5752 73.6401 71.9479C72.9995 72.7715 72.0844 73.2291 71.0777 73.2291H71.1692Z" fill="#4B4B4B"/>-->
<!--        <path d="M163.051 49.7084C162.502 49.7084 161.953 49.5254 161.404 49.2509C159.94 48.3357 159.482 46.4139 160.397 44.9497L180.805 11.5467C181.72 10.0824 183.642 9.62485 185.106 10.54C186.571 11.4551 187.028 13.377 186.113 14.8412L165.705 48.2442C165.156 49.1594 164.058 49.7084 163.051 49.7084Z" fill="#4B4B4B"/>-->
<!--        <path d="M184.923 72.8629C183.916 72.8629 183.001 72.4052 182.361 71.5816C181.354 70.2088 181.72 68.287 183.093 67.2804L216.313 43.395C217.686 42.3883 219.607 42.7543 220.614 44.127C221.621 45.4997 221.255 47.4216 219.882 48.4282L186.662 72.3138C186.113 72.6798 185.472 72.8629 184.832 72.8629H184.923Z" fill="#4B4B4B"/>-->
<!--        <path d="M218.142 209.127C217.502 209.127 216.952 208.944 216.403 208.578L183.183 185.517C181.811 184.51 181.445 182.588 182.36 181.215C183.366 179.843 185.288 179.477 186.661 180.392L219.881 203.454C221.254 204.46 221.62 206.382 220.705 207.755C220.064 208.578 219.149 209.127 218.142 209.127Z" fill="#4B4B4B"/>-->
<!--        <path d="M183.459 244.999C182.453 244.999 181.354 244.45 180.805 243.535L160.397 209.949C159.482 208.485 159.94 206.563 161.404 205.648C162.868 204.733 164.79 205.19 165.705 206.655L186.113 240.241C187.028 241.705 186.571 243.627 185.106 244.542C184.649 244.816 184.008 244.999 183.459 244.999Z" fill="#4B4B4B"/>-->
<!--        <path d="M72.7248 244.999C72.1757 244.999 71.6266 244.816 71.0775 244.542C69.6133 243.627 69.1557 241.705 70.0709 240.241L90.4788 206.655C91.3939 205.19 93.3157 204.733 94.78 205.648C96.2442 206.563 96.7018 208.485 95.7866 209.949L75.3788 243.535C74.8297 244.45 73.7315 244.999 72.7248 244.999Z" fill="#4B4B4B"/>-->
<!--        <path d="M37.8577 210.775C36.8511 210.775 35.9359 210.317 35.2953 209.493C34.2886 208.121 34.6547 206.199 36.0274 205.192L69.3389 181.673C70.7117 180.666 72.6335 181.032 73.6401 182.405C74.6468 183.778 74.2807 185.699 72.908 186.706L39.5965 210.226C39.0474 210.592 38.4068 210.775 37.7662 210.775H37.8577Z" fill="#4B4B4B"/>-->
<!--    </g>-->
<!--</svg>-->
<svg xmlns="http://www.w3.org/2000/svg" width="256" height="256" viewBox="0 0 256 256" fill="none">
    <rect width="256" height="256" fill="none"/>
    <path d="M170.227 219H85.9302C85.3032 219 84.7459 218.716 84.2582 218.291L57.715 191.776C57.297 191.351 57.0183 190.713 57.0183 190.075V65.1568C57.0183 64.5187 57.297 63.8807 57.715 63.4553L83.8402 37.7202C84.2582 37.224 84.8852 37.0113 85.5122 37.0113H170.227C170.854 37.0113 171.412 37.224 171.83 37.6493L198.234 62.959C198.721 63.3844 199 64.0225 199 64.7314V188.799C199 189.437 198.791 190.004 198.303 190.5L171.899 218.291C171.481 218.787 170.854 219 170.227 219ZM86.8359 214.25H169.182L194.263 187.877V65.7948L169.252 41.8322H86.4179L61.7557 66.2202V189.082L86.9055 214.25H86.8359Z" fill="#ffffff"/>
    <path d="M154.692 193.052H101.466C100.769 193.052 100.142 192.769 99.7243 192.272L83.0042 173.485C82.5862 173.06 82.3772 172.493 82.3772 171.855V83.5187C82.3772 82.9515 82.5862 82.3135 83.0042 81.8881L99.4456 63.668C99.8636 63.1717 100.491 62.8881 101.187 62.8881H154.692C155.319 62.8881 155.946 63.1717 156.433 63.668L173.084 81.6045C173.502 82.0299 173.711 82.668 173.711 83.2351V170.933C173.711 171.5 173.502 172.067 173.153 172.493L156.503 192.131C156.085 192.627 155.388 192.981 154.692 192.981V193.052ZM102.511 188.231H153.577L168.973 170.082V84.2277L153.647 67.7799H102.232L87.1146 84.5112V171.004L102.511 188.302V188.231Z" fill="#ffffff"/>
    <path d="M101.187 67.709C100.421 67.709 99.6546 67.2836 99.167 66.5747L83.4919 40.6978C82.7952 39.5635 83.1435 38.0747 84.2582 37.3658C85.3729 36.6568 86.8359 37.0113 87.5326 38.1456L103.277 64.0225C103.974 65.1568 103.626 66.6456 102.511 67.3545C102.093 67.5672 101.675 67.709 101.257 67.709H101.187Z" fill="#ffffff"/>
    <path d="M84.7459 85.9292C84.2582 85.9292 83.7705 85.7874 83.3525 85.5038L57.9937 67.1419C56.9487 66.362 56.67 64.8732 57.4363 63.8098C58.2027 62.7463 59.6657 62.4628 60.7107 63.2426L86.0695 81.6045C87.1146 82.3844 87.3932 83.8732 86.6269 84.9366C86.1392 85.5747 85.4425 85.9292 84.6762 85.9292H84.7459Z" fill="#ffffff"/>
    <path d="M154.692 67.709C154.274 67.709 153.856 67.5672 153.438 67.3545C152.323 66.6456 151.975 65.1568 152.671 64.0225L168.207 38.1456C168.904 37.0113 170.367 36.6568 171.481 37.3658C172.596 38.0747 172.944 39.5635 172.248 40.6978L156.712 66.5747C156.294 67.2836 155.458 67.709 154.692 67.709Z" fill="#ffffff"/>
    <path d="M171.342 85.6456C170.576 85.6456 169.879 85.2911 169.391 84.653C168.625 83.5896 168.904 82.1008 169.949 81.321L195.238 62.8172C196.283 62.0374 197.746 62.321 198.512 63.3844C199.279 64.4478 199 65.9366 197.955 66.7165L172.666 85.2202C172.248 85.5038 171.76 85.6456 171.272 85.6456H171.342Z" fill="#ffffff"/>
    <path d="M196.631 191.209C196.144 191.209 195.726 191.067 195.308 190.784L170.018 172.918C168.973 172.138 168.695 170.649 169.391 169.586C170.158 168.522 171.621 168.239 172.666 168.948L197.955 186.813C199 187.593 199.279 189.082 198.582 190.146C198.094 190.784 197.398 191.209 196.631 191.209Z" fill="#ffffff"/>
    <path d="M170.227 219C169.461 219 168.625 218.575 168.207 217.866L152.671 191.847C151.975 190.713 152.323 189.224 153.438 188.515C154.552 187.806 156.015 188.16 156.712 189.295L172.248 215.313C172.944 216.448 172.596 217.937 171.481 218.646C171.133 218.858 170.645 219 170.227 219Z" fill="#ffffff"/>
    <path d="M85.9302 219C85.5122 219 85.0942 218.858 84.6762 218.646C83.5615 217.937 83.2132 216.448 83.9099 215.313L99.4456 189.295C100.142 188.16 101.605 187.806 102.72 188.515C103.835 189.224 104.183 190.713 103.486 191.847L87.9506 217.866C87.5326 218.575 86.6965 219 85.9302 219Z" fill="#ffffff"/>
    <path d="M59.387 192.485C58.6207 192.485 57.924 192.131 57.4363 191.493C56.67 190.429 56.9487 188.94 57.9937 188.16L83.3525 169.94C84.3975 169.16 85.8605 169.444 86.6269 170.507C87.3932 171.571 87.1146 173.06 86.0695 173.84L60.7107 192.06C60.2927 192.343 59.805 192.485 59.3174 192.485H59.387Z" fill="#ffffff"/>
</svg>