<!--<svg xmlns="http://www.w3.org/2000/svg" width="256" height="256" viewBox="0 0 256 256" fill="none">-->
<!--    <path d="M175.3 29.5831C180.942 29.5831 186.583 30.5643 192.143 32.5266C207.024 37.8412 217.817 48.2251 223.377 62.5336C230.899 81.9115 227.956 106.113 215.037 130.806C195.904 167.354 143.494 212.16 129.186 224.016C114.305 212.814 59.769 170.134 40.6365 133.667C28.2903 110.12 25.3468 86.0814 32.3784 66.0494C37.5295 51.3321 47.9134 39.8853 61.6496 33.9166C62.7943 33.426 64.0207 32.9354 65.2471 32.5266C70.807 30.5643 76.4487 29.5831 82.0903 29.5831C106.537 29.5831 124.117 48.3886 124.28 48.5522L128.777 53.5397L133.274 48.5522C133.274 48.5522 150.853 29.5831 175.464 29.5831M175.3 23.4509C147.746 23.4509 128.613 44.464 128.613 44.464C128.613 44.464 109.481 23.4509 81.9268 23.4509C75.9581 23.4509 69.6623 24.4321 63.0395 26.8032C61.6496 27.2938 60.3414 27.7843 59.0332 28.3567C24.5292 43.4828 9.89359 88.4525 35.1584 136.529C58.2155 180.436 129.349 231.783 129.349 231.783C129.349 231.783 197.376 177.574 220.433 133.667C246.679 83.7102 231.471 40.0488 194.187 26.7214C187.565 24.3503 181.269 23.3691 175.3 23.3691V23.4509Z" fill="#4B4B4B"/>-->
<!--    <path d="M36.384 49.77L54.6172 59.0093L62.0576 33.2539L128.04 59.0093L192.47 33.2539L199.501 59.0093L228.282 93.7585L195.904 123.275L158.62 143.798L108.09 181.49L92.1464 197.925" stroke="#4B4B4B" stroke-width="6.13223" stroke-miterlimit="10"/>-->
<!--    <path d="M108.091 181.493L96.5623 145.108L74.4045 91.3899L54.6179 59.0117L27.8813 92.1257L59.2783 123.277L67.9452 169.801L108.091 181.493Z" stroke="#4B4B4B" stroke-width="6.13223" stroke-miterlimit="10"/>-->
<!--    <path d="M84.7068 25.6523V39.7973L76.6941 63.5904L54.618 59.0117" stroke="#4B4B4B" stroke-width="6.13223" stroke-miterlimit="10"/>-->
<!--    <path d="M172.52 26.8008L170.884 38.0841L157.966 28.2725" stroke="#4B4B4B" stroke-width="6.13223" stroke-miterlimit="10"/>-->
<!--    <path d="M96.3984 28.8457L84.7063 39.8019" stroke="#4B4B4B" stroke-width="6.13223" stroke-miterlimit="10"/>-->
<!--    <path d="M170.885 38.0762L177.099 63.5862" stroke="#4B4B4B" stroke-width="6.13223" stroke-miterlimit="10"/>-->
<!--    <path d="M199.502 59.0117L181.351 89.9999L158.621 143.8L147.664 181.493L165.407 199.971" stroke="#4B4B4B" stroke-width="6.13223" stroke-miterlimit="10"/>-->
<!--    <path d="M177.099 63.5957L181.351 90.0052L195.905 123.283L186.011 170.623L147.664 181.498" stroke="#4B4B4B" stroke-width="6.13223" stroke-miterlimit="10"/>-->
<!--    <path d="M36.957 135.538L59.2783 123.274L74.4045 91.3862L76.6939 63.5868L128.041 59.008L177.099 63.5868L199.502 59.008L219.779 48.9512" stroke="#4B4B4B" stroke-width="6.13223" stroke-miterlimit="10"/>-->
<!--    <path d="M59.2781 123.271L96.562 145.102L128.041 166.606L147.664 181.487L128.695 225.721" stroke="#4B4B4B" stroke-width="6.13223" stroke-miterlimit="10"/>-->
<!--    <path d="M108.09 181.496L128.695 225.73" stroke="#4B4B4B" stroke-width="6.13223" stroke-miterlimit="10"/>-->
<!--    <path d="M217.653 132.511L195.904 123.271" stroke="#4B4B4B" stroke-width="6.13223" stroke-miterlimit="10"/>-->
<!--    <path d="M128.613 44.4629L128.041 59.0167" stroke="#4B4B4B" stroke-width="6.13223" stroke-miterlimit="10"/>-->
<!--</svg>-->
<svg xmlns="http://www.w3.org/2000/svg" width="256" height="256" viewBox="0 0 256 256" fill="none">
    <rect width="256" height="256" fill="none"/>
    <path fill-rule="evenodd" clip-rule="evenodd" d="M165.62 45C170.369 45 175.382 45.7825 180.651 47.6711C210.313 58.2868 222.412 93.0638 201.532 132.852C192.572 149.935 175.059 168.962 159.503 183.971L159.509 183.978L159.223 184.251C158.752 184.705 158.28 185.153 157.813 185.599L155.99 187.361L155.971 187.342C141.218 201.279 129.061 211 129.061 211C128.734 210.764 72.4169 170.004 54.1239 135.136C34.0229 96.8432 45.6667 61.0225 73.1185 48.9748C74.1591 48.5191 75.202 48.1253 76.3076 47.7347C81.5756 45.8469 86.584 45.07 91.3318 45.07C113.144 45.07 128.323 61.6351 128.476 61.8022C128.587 61.6809 143.778 45.0704 165.62 45.07V45ZM133.399 201.041C138.26 196.9 145.093 190.907 152.597 183.825L144.421 175.297L133.399 201.041ZM103.135 183.742C110.815 190.5 117.908 196.262 123.14 200.36L111.425 175.182L103.135 183.742ZM115.186 171.704L128.444 200.195L140.642 171.748L127.993 162.145L115.186 171.704ZM83.4671 165.134C88.7109 170.536 94.1838 175.724 99.4823 180.499L107.569 172.155L83.4671 165.134ZM148.201 172.187L156.136 180.461C160.864 175.904 165.756 170.966 170.531 165.846L148.201 172.187ZM154.401 142.576L147.198 167.392L172.056 160.339L178.535 129.278L154.401 142.576ZM82.3236 159.716L108.433 167.322L100.924 143.594L76.6824 129.386L82.3236 159.716ZM113.433 166.934L123.813 159.175L107.43 147.969L113.433 166.934ZM132.065 159.105L142.274 166.858L147.979 147.225L132.065 159.105ZM59.6063 134.9C63.9504 142.599 70.1459 150.59 77.1081 158.329L71.524 128.343L59.6063 134.9ZM177.494 158.138C184.705 149.83 191.222 141.262 195.84 133.12L183.783 127.987L177.494 158.138ZM89.426 79.285L87.8251 98.7964L104.952 140.363L127.949 156.091L150.355 139.365L167.914 97.7661L164.941 79.2913L128.374 75.8762L128.031 76.0161L127.663 75.8698L89.426 79.285ZM76.4601 123.599L97.9576 136.198L85.1887 105.207L76.4601 123.599ZM157.324 135.39L178.878 123.51L170.467 104.253L157.324 135.39ZM49.3531 104.221C50.3171 112.812 52.9971 121.718 57.3448 130.576L69.2688 124.012L49.3531 104.221ZM186.451 123.822L198.127 128.782C201.991 121.037 204.624 113.375 205.992 105.996L186.451 123.822ZM173.161 98.2304L182.881 120.47L204.41 100.832L185.218 77.6378L173.161 98.2304ZM51.6083 99.5914L72.5786 120.413L82.5714 99.3243L69.3196 77.6187L51.6083 99.5914ZM188.719 74.2099L207.053 96.3734C207.303 89.1786 206.268 82.3775 203.87 76.1942C202.816 73.4792 201.515 70.9485 200.001 68.6007L188.719 74.2099ZM56.5062 69.4847C54.6491 72.4077 53.104 75.5928 51.9132 78.9988C50.1332 84.0756 49.1595 89.4748 48.9719 95.0824L65.8129 74.2036L56.5062 69.4847ZM83.5243 91.521L84.5534 78.9861L74.6114 76.9255L83.5243 91.521ZM169.832 78.9606L171.763 90.974L180.003 76.881L169.832 78.9606ZM138.31 71.895L163.867 74.2863L161.072 62.788L138.31 71.895ZM90.6711 74.2672L117.448 71.8823L94.4954 62.9088L90.6711 74.2672ZM72.6675 71.5325L85.5445 74.2036L89.9405 61.1281L77.1208 56.1231L72.6675 71.5325ZM165.646 60.9628L168.86 74.1718L181.826 71.5134L177.646 56.1612L165.646 60.9628ZM186.445 69.8854L197.073 64.6069C193.085 59.8535 188.004 56.0989 181.972 53.4711L186.445 69.8854ZM72.4388 54.7366C67.3755 57.3961 62.9667 61.0373 59.384 65.4718L68.0745 69.879L72.4388 54.7366ZM96.6553 58.5079L125.713 69.8663L125.865 65.9869L125.027 65.0584C124.846 64.8722 116.457 55.9393 103.7 51.9002L96.6553 58.5079ZM152.267 52.3009C140.159 56.5132 132.312 64.9225 132.186 65.0584L130.719 66.6801L130.604 69.72L159.801 58.031L152.267 52.3009ZM91.1031 49.9605C87.2234 49.9966 83.3444 50.6075 79.5094 51.8112L91.1031 56.3393V49.9605ZM164.661 56.0849L176.293 51.436C173.313 50.6034 170.311 50.1168 167.304 49.986L165.754 49.9542C165.687 49.9542 165.617 49.9538 165.55 49.9542L164.661 56.0849ZM95.982 52.4535L98.0339 50.5202C97.3588 50.4047 96.6746 50.3094 95.982 50.2276V52.4535ZM160.57 50.2976C159.772 50.4051 158.987 50.5408 158.213 50.6919L160.284 52.2691L160.57 50.2976Z" fill="#ffffff"/>
</svg>