<svg xmlns="http://www.w3.org/2000/svg" width="256" height="256" viewBox="0 0 256 256" fill="none">
    <rect width="256" height="256" fill="none"/>
    <path d="M129.412 34.8809L129.418 34.8867C129.422 34.8893 129.432 34.896 129.439 34.9004C129.452 34.9091 129.474 34.9183 129.497 34.9336C129.545 34.9651 129.613 35.0124 129.701 35.0713C129.881 35.1913 130.146 35.3716 130.482 35.6035C131.155 36.0674 132.127 36.7512 133.341 37.6533C135.771 39.4595 139.177 42.1375 143.123 45.6348C150.515 52.1871 159.831 61.6554 168.134 73.7344L169.783 76.1846V76.1914C181.642 94.3386 190.9 117.726 187.39 143.17C183.867 168.696 167.574 195.737 129.451 221.277L128.045 222.217L126.64 221.277C88.5504 195.737 72.2761 168.695 68.7539 143.17C65.2433 117.726 74.4832 94.3383 86.3077 76.1914L86.3145 76.1846C95.0131 62.9313 105.083 52.6238 112.968 45.6348C116.913 42.1376 120.32 39.4596 122.75 37.6533C123.965 36.7501 124.942 36.0675 125.614 35.6035C125.95 35.3718 126.21 35.1913 126.39 35.0713C126.479 35.0116 126.551 34.9653 126.6 34.9336C126.621 34.9195 126.639 34.9088 126.652 34.9004C126.659 34.896 126.668 34.8894 126.672 34.8867H126.679V34.8809L128.045 34L129.412 34.8809ZM132.263 213.177C139.205 208.207 145.305 203.216 150.632 198.211L138.944 188.238L132.263 213.177ZM105.761 198.474C111.011 203.386 117.007 208.285 123.814 213.163L117.284 188.882L105.761 198.474ZM121.555 185.334L128.039 209.445L134.694 184.611L128.637 179.441L121.555 185.334ZM91.5244 182.916C94.6006 186.915 98.1154 190.928 102.114 194.939L115.846 183.521L110.616 164.062L99.4014 154.496L91.5244 182.916ZM144.942 165.881L140.397 182.838L154.265 194.67C157.618 191.292 160.624 187.91 163.318 184.539L155.94 156.729L144.942 165.881ZM120.115 179.967L124.741 176.117L117.396 169.85L120.115 179.967ZM160.218 153.175L167.182 179.428C176.106 166.822 180.755 154.377 182.397 142.479C182.782 139.685 182.995 136.913 183.066 134.169L160.218 153.175ZM132.572 176.169L136.146 179.211L138.215 171.472L132.572 176.169ZM73.0498 132.008C73.0429 135.456 73.2591 138.95 73.7461 142.479C75.3119 153.828 79.6114 165.672 87.7403 177.681L95.17 150.883L73.0498 132.008ZM115.603 96.0713L106.444 129.11L115.083 161.243L128.676 172.845L140.481 163.023L149.088 130.917L139.903 96.3145L127.849 85.6182L115.603 96.0713ZM147.203 157.433L154.515 151.355L151.689 140.706L147.203 157.433ZM100.893 149.135L108.304 155.462L103.79 138.676L100.893 149.135ZM154.312 130.924L158.785 147.795L179 130.989L159.041 113.284L154.312 130.924ZM77.169 128.894L96.6553 145.521L101.215 129.084L96.6817 112.232L77.169 128.894ZM160.5 107.831L182.962 127.757C181.996 110.874 175.628 95.2125 167.444 81.9326L160.5 107.831ZM88.5743 82.0518C80.8087 94.7209 74.6941 109.551 73.333 125.536L95.2295 106.832L88.5743 82.0518ZM151.71 121.135L154.817 109.539L146.73 102.365L151.71 121.135ZM100.932 108.6L103.869 119.519L108.743 101.932L100.932 108.6ZM139.614 75.5674L144.391 93.542L156.282 104.086L163.351 77.7217C163.467 77.2884 163.695 76.9175 163.988 76.6182C160.685 71.8105 157.198 67.4375 153.753 63.498L139.614 75.5674ZM102.588 63.209C99.0025 67.2878 95.3716 71.8413 91.9385 76.8613C92.3143 77.1806 92.6011 77.6111 92.7393 78.123L99.4805 103.206L111.154 93.2334L116.147 75.2383L102.588 63.209ZM131.725 82.3076L137.564 87.4912L135.364 79.2002L131.725 82.3076ZM118.014 87.373L124.038 82.2354L120.346 78.9639L118.014 87.373ZM121.85 73.5498L127.907 78.9238L133.925 73.7861L127.986 51.4102L121.85 73.5498ZM138.183 70.1533L150.369 59.7471C146.635 55.7517 143.025 52.2904 139.779 49.4131C136.158 46.2031 133.008 43.7148 130.706 41.9893L138.183 70.1533ZM125.358 42.0088C123.059 43.7335 119.925 46.2161 116.318 49.4131C113.145 52.2257 109.616 55.589 105.971 59.4707L117.646 69.8252L125.358 42.0088Z" fill="#FFFFFF"/>
</svg>