<!--<svg xmlns="http://www.w3.org/2000/svg" width="256" height="256" viewBox="0 0 256 256" fill="none">-->
<!--    <mask id="mask0_1885_1881" style="mask-type:luminance" maskUnits="userSpaceOnUse" x="46" y="12" width="164" height="229">-->
<!--        <path d="M209.526 12.9995H46.0289V240.749H209.526V12.9995Z" fill="white"/>-->
<!--    </mask>-->
<!--    <g mask="url(#mask0_1885_1881)">-->
<!--        <path d="M127.821 240.75C104.207 240.75 85.2138 233.306 71.2683 218.591C43.6338 189.416 46.0294 142.361 46.1149 140.307C46.1149 75.114 122.773 16.0807 126.024 13.5995C127.307 12.6584 129.104 12.9151 130.045 14.1129C130.986 15.3962 130.729 17.1929 129.532 18.134C128.762 18.7329 51.9327 77.9374 51.9327 140.479C51.9327 141.077 49.6227 187.277 75.546 214.655C88.2938 228.173 105.918 235.017 127.821 235.017C129.446 235.017 130.729 236.301 130.729 237.926C130.729 239.552 129.446 240.835 127.821 240.835V240.75Z" fill="#FFFFFF"/>-->
<!--        <path d="M127.82 240.752C126.194 240.752 124.911 239.468 124.911 237.843C124.911 236.217 126.194 234.934 127.82 234.934C149.807 234.934 167.346 228.089 180.18 214.572C206.103 187.108 203.793 141.079 203.708 140.652C203.708 78.0251 126.879 18.8205 126.109 18.2217C124.825 17.2805 124.569 15.3983 125.595 14.2005C126.537 12.9172 128.419 12.6605 129.616 13.6872C132.867 16.1683 209.525 75.2017 209.525 140.566C209.611 142.363 212.006 189.418 184.372 218.678C170.512 233.394 151.433 240.837 127.82 240.837V240.752Z" fill="#FFFFFF"/>-->
<!--        <path d="M87.0096 230.57C86.5819 230.57 86.0685 230.484 85.7263 230.227C84.7852 229.714 84.1007 228.773 84.1007 227.661V55.5229C84.1007 54.4106 84.6996 53.4695 85.6407 52.9562C86.5819 52.4429 87.7796 52.5284 88.6352 53.1273L129.36 81.9596L208.156 138.084C208.926 138.597 209.354 139.538 209.354 140.394C209.354 141.335 208.926 142.191 208.156 142.79L88.6352 229.971C88.1219 230.313 87.523 230.484 86.9241 230.484L87.0096 230.57ZM89.9185 61.1695V221.928L201.569 140.48L89.9185 61.1695Z" fill="#FFFFFF"/>-->
<!--        <path d="M168.459 230.567C167.86 230.567 167.261 230.396 166.747 230.054L47.2267 142.873C46.4567 142.36 46.0289 141.418 46.0289 140.477C46.0289 139.536 46.4567 138.681 47.2267 138.167L126.023 82.0431L166.747 53.2108C167.603 52.6119 168.801 52.5264 169.742 53.0397C170.683 53.553 171.282 54.4941 171.282 55.6064V227.744C171.282 228.856 170.683 229.797 169.656 230.311C169.229 230.567 168.801 230.653 168.373 230.653L168.459 230.567ZM53.9001 140.563L165.55 222.012V61.1675L129.36 86.7486L53.9001 140.563Z" fill="#FFFFFF"/>-->
<!--        <path d="M126.023 18.2212L59.632 195.578H195.494L129.103 18.2212" stroke="#FFFFFF" stroke-width="6.41667" stroke-linejoin="round"/>-->
<!--    </g>-->
<!--</svg>-->
<svg xmlns="http://www.w3.org/2000/svg" width="256" height="256" viewBox="0 0 256 256" fill="none">
    <rect width="256" height="256" fill="none"/>
    <path fill-rule="evenodd" clip-rule="evenodd" d="M127.013 34.469C127.626 34.0193 128.383 33.904 129.061 34.076C129.105 34.0862 129.149 34.0975 129.192 34.1105C129.265 34.1334 129.335 34.1634 129.406 34.1932C129.466 34.2181 129.527 34.2386 129.585 34.269L129.64 34.2966C129.784 34.3763 129.915 34.4767 130.04 34.5862C133.49 37.2268 195.929 85.6592 195.929 139.25C196.001 140.75 197.968 179.572 175.168 203.714C163.73 215.858 147.983 222 128.496 222V221.931C115.218 221.931 103.715 219.068 94.0894 213.408C93.9699 213.366 93.8538 213.315 93.7584 213.243C93.6419 213.179 93.5401 213.094 93.4343 213.015C89.1925 210.442 85.3168 207.324 81.83 203.645C76.8396 198.376 73.0326 192.4 70.1359 186.262C70.1082 186.226 70.0723 186.196 70.0463 186.158C69.8352 185.853 69.7085 185.506 69.6395 185.152C60.5593 165.111 60.9057 143.695 61.0483 139.657C61.0188 139.5 61.0002 139.341 61 139.181C61 138.971 61.0255 138.763 61.0758 138.567C61.442 84.9687 124.298 36.5414 127.013 34.469ZM99.2331 210.788C107.443 214.977 117.058 217.121 127.979 217.187C128.145 217.151 128.317 217.132 128.496 217.132C139.556 217.132 149.247 215.015 157.531 210.85L128.337 189.551L99.2331 210.788ZM164.364 187.303V206.713C166.985 204.831 169.44 202.709 171.707 200.321C175.448 196.357 178.468 191.921 180.919 187.303H164.364ZM76.1002 187.303C78.5596 191.953 81.5942 196.42 85.3602 200.397C87.5389 202.707 89.9012 204.766 92.4208 206.603V187.303H76.1002ZM133.364 187.303L159.634 206.465V187.303H133.364ZM97.2197 187.303V206.396L123.38 187.303H97.2197ZM164.364 163.273V182.007H180.526L171.548 158.026L164.364 163.273ZM138.68 182.007H159.634V166.727L138.68 182.007ZM100.984 115.358L97.2197 125.432V160.928L126.11 182.007H130.647L159.634 160.86V126.19L155.483 115.109L128.358 95.8439L100.984 115.358ZM97.2197 182.007H117.994L97.2197 166.852V182.007ZM76.045 182.007H92.4208V163.349L85.0362 157.964L76.045 182.007ZM175.996 154.785L184.87 178.498C190.096 164.585 191.068 150.606 191.179 143.718L175.996 154.785ZM65.8541 143.973C66.0085 150.909 67.0034 164.387 71.9287 177.877L80.5957 154.723L65.8541 143.973ZM86.7806 153.316L92.4208 157.433V138.25L86.7806 153.316ZM164.364 157.412L169.825 153.426L164.364 138.829V157.412ZM164.364 123.708L174.272 150.179L189.358 139.181L164.364 121.419V123.708ZM67.4951 139.25L82.3333 150.075L92.4208 123.142V121.474L67.4951 139.25ZM164.364 115.516L190.937 134.451C189.331 113.058 177.448 92.4078 164.364 75.758V115.516ZM92.4208 75.9372C79.4084 92.5456 67.6299 113.097 66.0472 134.368L92.4208 115.592V75.9372ZM148.574 81.5362L159.634 111.069V73.7238L148.574 81.5362ZM97.2197 110.324L108.038 81.4121L97.2197 73.7238V110.324ZM103.984 107.345L124.241 92.9203L112.506 84.5839L103.984 107.345ZM132.557 92.8652L152.463 107.042L144.099 84.7011L132.557 92.8652ZM114.257 79.8951L128.441 89.9347L142.369 80.0744L128.282 42.44L114.257 79.8951ZM146.843 76.9026L158.517 68.6489C149.645 58.3363 140.832 50.0415 134.805 44.743L146.843 76.9026ZM121.594 45.1981C115.569 50.5291 107.004 58.6512 98.3919 68.6696L109.789 76.7371L121.594 45.1981Z" fill="#FFFFFF"/>
</svg>